<svg width="192" height="236" viewBox="0 0 192 236" fill="none" xmlns="http://www.w3.org/2000/svg">
<g opacity="0.05">
<path d="M168.315 71.3472C169.429 65.6561 177.571 65.6561 178.685 71.3472C182.405 90.3571 206.359 96.7756 219.086 82.1728C222.897 77.8011 229.947 81.8719 228.066 87.3574C221.784 105.681 239.319 123.216 257.643 116.934C263.128 115.053 267.199 122.104 262.827 125.914C248.224 138.641 254.643 162.595 273.653 166.315C279.344 167.429 279.344 175.571 273.653 176.685C254.643 180.405 248.224 204.359 262.827 217.086C267.199 220.896 263.128 227.947 257.643 226.066C239.319 219.784 221.784 237.319 228.066 255.643C229.947 261.128 222.896 265.199 219.086 260.827C206.359 246.224 182.405 252.643 178.685 271.653C177.571 277.344 169.429 277.344 168.315 271.653C164.595 252.643 140.641 246.224 127.914 260.827C124.104 265.199 117.053 261.128 118.934 255.643C125.216 237.319 107.681 219.784 89.3574 226.066C83.8719 227.947 79.8011 220.897 84.1728 217.086C98.7756 204.359 92.3571 180.405 73.3472 176.685C67.6561 175.571 67.6561 167.429 73.3472 166.315C92.3571 162.595 98.7756 138.641 84.1728 125.914C79.8011 122.103 83.8719 115.053 89.3574 116.934C107.681 123.216 125.216 105.681 118.934 87.3574C117.053 81.8719 124.103 77.8011 127.914 82.1728C140.641 96.7756 164.595 90.3571 168.315 71.3472Z" stroke="white" stroke-width="18"/>
<path d="M142.979 111.975C151.461 121.706 167.423 117.429 169.903 104.761C170.645 100.969 176.071 100.969 176.813 104.761C179.292 117.429 195.255 121.706 203.736 111.975C206.276 109.062 210.974 111.775 209.721 115.43C205.534 127.641 217.219 139.326 229.43 135.14C233.086 133.886 235.798 138.585 232.885 141.124C223.154 149.605 227.431 165.568 240.099 168.047C243.892 168.79 243.892 174.215 240.099 174.957C227.431 177.437 223.154 193.4 232.885 201.881C235.798 204.42 233.086 209.119 229.43 207.865C217.219 203.678 205.534 215.364 209.721 227.575C210.974 231.23 206.276 233.943 203.736 231.03C195.255 221.298 179.292 225.576 176.813 238.244C176.071 242.036 170.645 242.036 169.903 238.244C167.423 225.576 151.461 221.298 142.979 231.03C140.44 233.943 135.742 231.23 136.995 227.575C141.182 215.364 129.496 203.678 117.286 207.865C113.63 209.119 110.917 204.42 113.831 201.881C123.562 193.4 119.285 177.437 106.617 174.957C102.824 174.215 102.824 168.79 106.617 168.047C119.285 165.568 123.562 149.605 113.831 141.124C110.917 138.585 113.63 133.886 117.286 135.14C129.496 139.326 141.182 127.641 136.995 115.43C135.742 111.775 140.44 109.062 142.979 111.975Z" stroke="white" stroke-width="11.9951"/>
</g>
</svg>
