<svg width="29" height="29" viewBox="0 0 29 29" fill="none" xmlns="http://www.w3.org/2000/svg">
<path opacity="0.4" d="M20.4567 22.1772H15.6433L10.2885 25.7391C9.4943 26.2685 8.42334 25.7029 8.42334 24.7403V22.1772C4.81334 22.1772 2.40668 19.7705 2.40668 16.1605V8.94049C2.40668 5.33049 4.81334 2.92383 8.42334 2.92383H20.4567C24.0667 2.92383 26.4733 5.33049 26.4733 8.94049V16.1605C26.4733 19.7705 24.0667 22.1772 20.4567 22.1772Z" fill="white"/>
<path d="M14.44 14.5716C13.9466 14.5716 13.5375 14.1624 13.5375 13.6691V13.4164C13.5375 12.0205 14.5603 11.3346 14.9454 11.0699C15.3906 10.7691 15.535 10.5645 15.535 10.2516C15.535 9.64997 15.0417 9.15656 14.44 9.15656C13.8383 9.15656 13.345 9.64997 13.345 10.2516C13.345 10.745 12.9359 11.1541 12.4425 11.1541C11.9491 11.1541 11.54 10.745 11.54 10.2516C11.54 8.6512 12.8396 7.35156 14.44 7.35156C16.0404 7.35156 17.34 8.6512 17.34 10.2516C17.34 11.6234 16.3293 12.3093 15.9562 12.562C15.4869 12.8749 15.3425 13.0795 15.3425 13.4164V13.6691C15.3425 14.1745 14.9334 14.5716 14.44 14.5716Z" fill="white"/>
<path d="M14.44 17.5687C13.9346 17.5687 13.5375 17.1595 13.5375 16.6662C13.5375 16.1728 13.9466 15.7637 14.44 15.7637C14.9334 15.7637 15.3425 16.1728 15.3425 16.6662C15.3425 17.1595 14.9454 17.5687 14.44 17.5687Z" fill="white"/>
</svg>
