<svg width="29" height="29" viewBox="0 0 29 29" fill="none" xmlns="http://www.w3.org/2000/svg">
<path d="M25.27 26.473H3.60999C3.11662 26.473 2.70749 26.0638 2.70749 25.5705C2.70749 25.0771 3.11662 24.668 3.60999 24.668H25.27C25.7634 24.668 26.1725 25.0771 26.1725 25.5705C26.1725 26.0638 25.7634 26.473 25.27 26.473Z" fill="white"/>
<path d="M22.8874 4.18755C20.5529 1.85308 18.2666 1.79291 15.872 4.18755L14.4159 5.64358C14.2956 5.76391 14.2475 5.95645 14.2956 6.12491C15.2101 9.31375 17.7612 11.8648 20.95 12.7793C20.9982 12.7914 21.0463 12.8034 21.0944 12.8034C21.2268 12.8034 21.3471 12.7553 21.4434 12.659L22.8874 11.203C24.0787 10.0237 24.6563 8.88055 24.6563 7.72535C24.6683 6.53405 24.0907 5.37885 22.8874 4.18755Z" fill="white"/>
<path d="M18.784 13.8736C18.4351 13.7051 18.0981 13.5366 17.7732 13.3441C17.5085 13.1877 17.2558 13.0192 17.0031 12.8387C16.7985 12.7063 16.5579 12.5138 16.3292 12.3213C16.3052 12.3092 16.2209 12.237 16.1247 12.1408C15.7276 11.8038 15.2823 11.3706 14.8852 10.8893C14.8491 10.8652 14.789 10.781 14.7047 10.6727C14.5844 10.5283 14.3798 10.2876 14.1993 10.0109C14.0549 9.83036 13.8865 9.56563 13.73 9.3009C13.5375 8.976 13.369 8.6511 13.2006 8.31416C13.1521 8.21022 13.1065 8.10728 13.0634 8.00562C12.9212 7.67001 12.4856 7.57307 12.2279 7.83083L5.22246 14.8362C5.06602 14.9927 4.92162 15.2935 4.88552 15.4981L4.23572 20.1068C4.11539 20.9251 4.34402 21.6952 4.84942 22.2127C5.28262 22.6338 5.88429 22.8625 6.53409 22.8625C6.67849 22.8625 6.82289 22.8504 6.96729 22.8264L11.5881 22.1766C11.8047 22.1405 12.1055 21.9961 12.2499 21.8396L19.2482 14.8414C19.5077 14.5818 19.4094 14.1374 19.0708 13.9958C18.9772 13.9567 18.882 13.916 18.784 13.8736Z" fill="white"/>
</svg>
