<svg width="29" height="29" viewBox="0 0 29 29" fill="none" xmlns="http://www.w3.org/2000/svg">
<path d="M19.482 2.40625H9.39804C5.01791 2.40625 2.40668 5.01748 2.40668 9.39762V19.4695C2.40668 23.8617 5.01791 26.4729 9.39804 26.4729H19.4699C23.8501 26.4729 26.4613 23.8617 26.4613 19.4816V9.39762C26.4733 5.01748 23.8621 2.40625 19.482 2.40625ZM9.22958 6.61792C9.22958 6.12455 9.63871 5.71542 10.1321 5.71542C10.6254 5.71542 11.0346 6.12455 11.0346 6.61792V11.3109C11.0346 11.8043 10.6254 12.2134 10.1321 12.2134C9.63871 12.2134 9.22958 11.8043 9.22958 11.3109V6.61792ZM11.3889 19.8021C11.1835 19.8877 11.0346 20.08 11.0346 20.3026V22.2613C11.0346 22.7546 10.6254 23.1638 10.1321 23.1638C9.63871 23.1638 9.22958 22.7546 9.22958 22.2613V20.3026C9.22958 20.08 9.08067 19.8878 8.87526 19.802C7.68914 19.3067 6.85901 18.1464 6.85901 16.7861C6.85901 14.9811 8.32708 13.501 10.1321 13.501C11.9371 13.501 13.4172 14.9691 13.4172 16.7861C13.4172 18.1465 12.5769 19.3069 11.3889 19.8021ZM19.6504 22.2613C19.6504 22.7546 19.2413 23.1638 18.7479 23.1638C18.2546 23.1638 17.8454 22.7546 17.8454 22.2613V17.5683C17.8454 17.0749 18.2546 16.6658 18.7479 16.6658C19.2413 16.6658 19.6504 17.0749 19.6504 17.5683V22.2613ZM18.7479 15.3662C16.9429 15.3662 15.4628 13.8981 15.4628 12.081C15.4628 10.7206 16.3031 9.56024 17.4911 9.06504C17.6966 8.9794 17.8454 8.78716 17.8454 8.56456V6.61792C17.8454 6.12455 18.2546 5.71542 18.7479 5.71542C19.2413 5.71542 19.6504 6.12455 19.6504 6.61792V8.57659C19.6504 8.79919 19.7994 8.99141 20.0048 9.07717C21.1909 9.57242 22.021 10.7327 22.021 12.0931C22.021 13.8981 20.5529 15.3662 18.7479 15.3662Z" fill="white"/>
</svg>
