<svg width="29" height="29" viewBox="0 0 29 29" fill="none" xmlns="http://www.w3.org/2000/svg">
<path opacity="0.4" d="M10.83 2.40625C7.67727 2.40625 5.11417 4.96935 5.11417 8.12208C5.11417 11.2146 7.53287 13.7176 10.6856 13.8259C10.7819 13.8138 10.8781 13.8138 10.9503 13.8259C10.9744 13.8259 10.9864 13.8259 11.0105 13.8259C11.0225 13.8259 11.0225 13.8259 11.0346 13.8259C14.1151 13.7176 16.5338 11.2146 16.5458 8.12208C16.5458 4.96935 13.9827 2.40625 10.83 2.40625Z" fill="white"/>
<path d="M16.9429 17.0263C13.5856 14.7881 8.11045 14.7881 4.72909 17.0263C3.20085 18.0491 2.35852 19.433 2.35852 20.9131C2.35852 22.3932 3.20085 23.765 4.71705 24.7758C6.40172 25.9069 8.61585 26.4725 10.83 26.4725C13.0441 26.4725 15.2583 25.9069 16.9429 24.7758C18.4591 23.7529 19.3015 22.3811 19.3015 20.889C19.2894 19.4089 18.4591 18.0371 16.9429 17.0263Z" fill="white"/>
<path opacity="0.4" d="M24.0546 8.83196C24.2472 11.1664 22.5866 13.2121 20.2882 13.4889C20.2762 13.4889 20.2762 13.4889 20.2641 13.4889H20.228C20.1558 13.4889 20.0836 13.4889 20.0235 13.5129C18.8562 13.5731 17.7853 13.2001 16.979 12.5142C18.2185 11.4071 18.9284 9.74649 18.784 7.94149C18.6998 6.96679 18.3629 6.07632 17.8575 5.31822C18.3147 5.08959 18.8442 4.94519 19.3857 4.89706C21.7442 4.69249 23.8501 6.44936 24.0546 8.83196Z" fill="white"/>
<path d="M26.4613 19.9631C26.365 21.1304 25.619 22.1412 24.3675 22.8271C23.1642 23.4889 21.648 23.8018 20.1438 23.7657C21.0102 22.9835 21.5156 22.0088 21.6119 20.9739C21.7322 19.4818 21.0222 18.0498 19.6023 16.9067C18.7961 16.2689 17.8575 15.7635 16.8346 15.3905C19.494 14.6203 22.8393 15.1378 24.897 16.7984C26.004 17.6888 26.5696 18.8079 26.4613 19.9631Z" fill="white"/>
</svg>
