<svg width="29" height="29" viewBox="0 0 29 29" fill="none" xmlns="http://www.w3.org/2000/svg">
<path opacity="0.4" d="M14.44 2.40625C11.2873 2.40625 8.72418 4.96935 8.72418 8.12208C8.72418 11.2146 11.1429 13.7176 14.2956 13.8259C14.3919 13.8138 14.4881 13.8138 14.5603 13.8259C14.5844 13.8259 14.5964 13.8259 14.6205 13.8259C14.6325 13.8259 14.6325 13.8259 14.6446 13.8259C17.7251 13.7176 20.1438 11.2146 20.1558 8.12208C20.1558 4.96935 17.5927 2.40625 14.44 2.40625Z" fill="#818181"/>
<path d="M20.5529 17.0263C17.1956 14.7881 11.7205 14.7881 8.3391 17.0263C6.81087 18.0491 5.96854 19.433 5.96854 20.9131C5.96854 22.3932 6.81087 23.765 8.32707 24.7758C10.0117 25.9069 12.2259 26.4725 14.44 26.4725C16.6541 26.4725 18.8683 25.9069 20.5529 24.7758C22.0691 23.7529 22.9115 22.3811 22.9115 20.889C22.8994 19.4089 22.0691 18.0371 20.5529 17.0263Z" fill="white"/>
</svg>
