<svg width="29" height="29" viewBox="0 0 29 29" fill="none" xmlns="http://www.w3.org/2000/svg">
<path opacity="0.4" d="M21.0944 9.34949C21.0102 9.33745 20.926 9.33745 20.8417 9.34949C18.9766 9.28932 17.4965 7.76108 17.4965 5.88388C17.4965 3.97058 19.0488 2.40625 20.9741 2.40625C22.8874 2.40625 24.4517 3.95855 24.4517 5.88388C24.4397 7.76108 22.9596 9.28932 21.0944 9.34949Z" fill="#828181"/>
<path opacity="0.4" d="M25.0173 17.6897C23.6696 18.5922 21.7803 18.9291 20.0355 18.7005C20.4928 17.7138 20.7334 16.6188 20.7455 15.4636C20.7455 14.2602 20.4807 13.1171 19.9753 12.1183C21.7563 11.8776 23.6455 12.2145 25.0053 13.117C26.9065 14.3685 26.9065 16.4262 25.0173 17.6897Z" fill="#828181"/>
<path opacity="0.4" d="M7.74948 9.34949C7.83371 9.33745 7.91795 9.33745 8.00218 9.34949C9.86735 9.28932 11.3474 7.76108 11.3474 5.88388C11.3474 3.97058 9.79515 2.40625 7.86981 2.40625C5.95651 2.40625 4.39218 3.95855 4.39218 5.88388C4.40421 7.76108 5.88431 9.28932 7.74948 9.34949Z" fill="#828181"/>
<path opacity="0.4" d="M7.88182 15.4638C7.88182 16.631 8.13452 17.7381 8.59178 18.7369C6.89508 18.9174 5.12618 18.5564 3.82658 17.702C1.92532 16.4385 1.92532 14.3808 3.82658 13.1173C5.11415 12.2509 6.93118 11.9019 8.63992 12.0944C8.14655 13.1052 7.88182 14.2484 7.88182 15.4638Z" fill="#828181"/>
<path d="M14.5844 19.097C14.4881 19.0849 14.3798 19.0849 14.2715 19.097C12.0574 19.0248 10.2885 17.2077 10.2885 14.9695C10.2885 12.6832 12.1296 10.8301 14.428 10.8301C16.7143 10.8301 18.5674 12.6832 18.5674 14.9695C18.5674 17.2077 16.8106 19.0248 14.5844 19.097Z" fill="white"/>
<path d="M10.6736 21.5887C8.85653 22.804 8.85653 24.8016 10.6736 26.0049C12.7433 27.3887 16.1367 27.3887 18.2064 26.0049C20.0235 24.7895 20.0235 22.792 18.2064 21.5887C16.1487 20.2048 12.7553 20.2048 10.6736 21.5887Z" fill="white"/>
</svg>
