<svg width="29" height="29" viewBox="0 0 29 29" fill="none" xmlns="http://www.w3.org/2000/svg">
<path opacity="0.4" d="M19.2533 2.40625H9.62668C4.81334 2.40625 2.40668 4.81292 2.40668 9.62625V25.2696C2.40668 25.9314 2.94818 26.4729 3.61001 26.4729H19.2533C24.0667 26.4729 26.4733 24.0662 26.4733 19.2529V9.62625C26.4733 4.81292 24.0667 2.40625 19.2533 2.40625Z" fill="white"/>
<path d="M20.4567 10.5293H8.42334C7.92998 10.5293 7.52084 10.9384 7.52084 11.4318C7.52084 11.9252 7.92998 12.3343 8.42334 12.3343H20.4567C20.95 12.3343 21.3592 11.9252 21.3592 11.4318C21.3592 10.9384 20.95 10.5293 20.4567 10.5293Z" fill="white"/>
<path d="M16.8467 16.5469H8.42334C7.92998 16.5469 7.52084 16.956 7.52084 17.4494C7.52084 17.9427 7.92998 18.3519 8.42334 18.3519H16.8467C17.34 18.3519 17.7492 17.9427 17.7492 17.4494C17.7492 16.956 17.34 16.5469 16.8467 16.5469Z" fill="white"/>
</svg>
