<svg width="29" height="29" viewBox="0 0 29 29" fill="none" xmlns="http://www.w3.org/2000/svg">
<path d="M25.3422 14.224L25.1497 13.9592C24.8127 13.5501 24.4156 13.2252 23.9584 12.9845C23.3447 12.6356 22.6467 12.4551 21.9247 12.4551H6.94324C6.22124 12.4551 5.53534 12.6356 4.90961 12.9845C4.44031 13.2372 4.01914 13.5862 3.67017 14.0194C2.98427 14.8978 2.65937 15.9808 2.76767 17.0638L3.21291 22.6834C3.36934 24.3801 3.57391 26.4739 7.38847 26.4739H21.4915C25.3061 26.4739 25.4986 24.3801 25.6671 22.6714L26.1123 17.0759C26.2206 16.0651 25.9559 15.0543 25.3422 14.224ZM17.316 20.8664H11.552C11.0827 20.8664 10.7097 20.4813 10.7097 20.024C10.7097 19.5668 11.0827 19.1817 11.552 19.1817H17.316C17.7853 19.1817 18.1583 19.5668 18.1583 20.024C18.1583 20.4933 17.7853 20.8664 17.316 20.8664Z" fill="white"/>
<path opacity="0.4" d="M4.06726 13.6093C4.33199 13.3686 4.59673 13.152 4.90959 12.9835C5.52329 12.6346 6.22123 12.4541 6.94323 12.4541H21.9368C22.6588 12.4541 23.3447 12.6346 23.9704 12.9835C24.2833 13.152 24.56 13.3686 24.8127 13.6213V12.9835V11.8163C24.8127 7.52042 23.5011 6.20878 19.2052 6.20878H16.3413C15.8118 6.20878 15.7998 6.19675 15.4869 5.78762L14.0429 3.85025C13.357 2.95978 12.8155 2.40625 11.0947 2.40625H9.67479C5.37889 2.40625 4.06726 3.71788 4.06726 8.01378V12.9956V13.6093Z" fill="#818181"/>
</svg>
