<svg width="29" height="29" viewBox="0 0 29 29" fill="none" xmlns="http://www.w3.org/2000/svg">
<path d="M24.6683 13.5972V8.47106C24.6683 3.62163 23.5372 2.40625 18.9886 2.40625H9.8914C5.3428 2.40625 4.21167 3.62163 4.21167 8.47106V22.0206C4.21167 25.2214 5.96855 25.9796 8.09845 23.6932L8.11046 23.6812C9.09719 22.6343 10.6014 22.7185 11.4557 23.8617L12.6711 25.4862" stroke="white" stroke-width="1.5" stroke-linecap="round" stroke-linejoin="round"/>
<path opacity="0.4" d="M9.62668 8.42383H19.2533" stroke="#828181" stroke-width="1.5" stroke-linecap="round" stroke-linejoin="round"/>
<path opacity="0.4" d="M10.83 13.2363H18.05" stroke="#828181" stroke-width="1.5" stroke-linecap="round" stroke-linejoin="round"/>
<path d="M21.9127 17.7735L17.6529 22.0333C17.4845 22.2018 17.328 22.5146 17.2919 22.7433L17.0633 24.3678C16.979 24.9574 17.3882 25.3666 17.9778 25.2823L19.6023 25.0537C19.831 25.0176 20.1558 24.8611 20.3123 24.6927L24.5721 20.4329C25.3061 19.6989 25.6551 18.8445 24.5721 17.7615C23.5011 16.6905 22.6467 17.0395 21.9127 17.7735Z" stroke="white" stroke-width="1.5" stroke-miterlimit="10" stroke-linecap="round" stroke-linejoin="round"/>
<path d="M21.299 18.3867C21.66 19.6863 22.6708 20.6971 23.9704 21.0581" stroke="white" stroke-width="1.5" stroke-miterlimit="10" stroke-linecap="round" stroke-linejoin="round"/>
</svg>
