<svg width="31" height="30" viewBox="0 0 31 30" fill="none" xmlns="http://www.w3.org/2000/svg">
<path d="M15.9625 2.68755L27.2125 7.18752C27.65 7.36252 28 7.88751 28 8.35001V12.5C28 13.1875 27.4375 13.75 26.75 13.75H4.25C3.5625 13.75 3 13.1875 3 12.5V8.35001C3 7.88751 3.35001 7.36252 3.78751 7.18752L15.0375 2.68755C15.2875 2.58755 15.7125 2.58755 15.9625 2.68755Z" stroke="#F36F2E" stroke-width="1.5" stroke-miterlimit="10" stroke-linecap="round" stroke-linejoin="round"/>
<path d="M28 27.5H3V23.75C3 23.0625 3.5625 22.5 4.25 22.5H26.75C27.4375 22.5 28 23.0625 28 23.75V27.5Z" stroke="#F36F2E" stroke-width="1.5" stroke-miterlimit="10" stroke-linecap="round" stroke-linejoin="round"/>
<path d="M5.5 22.5V13.75" stroke="#F36F2E" stroke-width="1.5" stroke-miterlimit="10" stroke-linecap="round" stroke-linejoin="round"/>
<path d="M10.5 22.5V13.75" stroke="#F36F2E" stroke-width="1.5" stroke-miterlimit="10" stroke-linecap="round" stroke-linejoin="round"/>
<path d="M15.5 22.5V13.75" stroke="#F36F2E" stroke-width="1.5" stroke-miterlimit="10" stroke-linecap="round" stroke-linejoin="round"/>
<path d="M20.5 22.5V13.75" stroke="#F36F2E" stroke-width="1.5" stroke-miterlimit="10" stroke-linecap="round" stroke-linejoin="round"/>
<path d="M25.5 22.5V13.75" stroke="#F36F2E" stroke-width="1.5" stroke-miterlimit="10" stroke-linecap="round" stroke-linejoin="round"/>
<path d="M1.75 27.5H29.25" stroke="#F36F2E" stroke-width="1.5" stroke-miterlimit="10" stroke-linecap="round" stroke-linejoin="round"/>
<path d="M15.5 10.625C16.5355 10.625 17.375 9.78553 17.375 8.75C17.375 7.71447 16.5355 6.875 15.5 6.875C14.4645 6.875 13.625 7.71447 13.625 8.75C13.625 9.78553 14.4645 10.625 15.5 10.625Z" stroke="#F36F2E" stroke-width="1.5" stroke-miterlimit="10" stroke-linecap="round" stroke-linejoin="round"/>
</svg>
