<svg width="1915" height="1080" viewBox="0 0 1915 1080" fill="none" xmlns="http://www.w3.org/2000/svg">
<g opacity="0.5">
<rect x="0.247288" y="-57.7527" width="238.88" height="238.88" stroke="#4E4D4D" stroke-width="0.494576"/>
<rect x="239.622" y="-57.7527" width="238.88" height="238.88" stroke="#4E4D4D" stroke-width="0.494576"/>
<rect x="478.997" y="-57.7527" width="238.88" height="238.88" stroke="#4E4D4D" stroke-width="0.494576"/>
<rect x="718.372" y="-57.7527" width="238.88" height="238.88" stroke="#4E4D4D" stroke-width="0.494576"/>
<rect x="957.747" y="-57.7527" width="238.88" height="238.88" stroke="#4E4D4D" stroke-width="0.494576"/>
<rect x="1197.12" y="-57.7527" width="238.88" height="238.88" stroke="#4E4D4D" stroke-width="0.494576"/>
<rect x="1436.5" y="-57.7527" width="238.88" height="238.88" stroke="#4E4D4D" stroke-width="0.494576"/>
<rect x="1675.87" y="-57.7527" width="238.88" height="238.88" stroke="#4E4D4D" stroke-width="0.494576"/>
<rect x="0.247349" y="181.622" width="238.88" height="238.88" stroke="#4E4D4D" stroke-width="0.494576"/>
<rect x="239.622" y="181.622" width="238.88" height="238.88" stroke="#4E4D4D" stroke-width="0.494576"/>
<rect x="478.997" y="181.622" width="238.88" height="238.88" stroke="#4E4D4D" stroke-width="0.494576"/>
<rect x="718.372" y="181.622" width="238.88" height="238.88" stroke="#4E4D4D" stroke-width="0.494576"/>
<rect x="957.747" y="181.622" width="238.88" height="238.88" stroke="#4E4D4D" stroke-width="0.494576"/>
<rect x="1197.12" y="181.622" width="238.88" height="238.88" stroke="#4E4D4D" stroke-width="0.494576"/>
<rect x="1436.5" y="181.622" width="238.88" height="238.88" stroke="#4E4D4D" stroke-width="0.494576"/>
<rect x="1675.87" y="181.622" width="238.88" height="238.88" stroke="#4E4D4D" stroke-width="0.494576"/>
<rect x="0.247349" y="420.997" width="238.88" height="238.88" stroke="#4E4D4D" stroke-width="0.494576"/>
<rect x="239.622" y="420.997" width="238.88" height="238.88" stroke="#4E4D4D" stroke-width="0.494576"/>
<rect x="478.997" y="420.997" width="238.88" height="238.88" stroke="#4E4D4D" stroke-width="0.494576"/>
<rect x="718.372" y="420.997" width="238.88" height="238.88" stroke="#4E4D4D" stroke-width="0.494576"/>
<rect x="957.747" y="420.997" width="238.88" height="238.88" stroke="#4E4D4D" stroke-width="0.494576"/>
<rect x="1197.12" y="420.997" width="238.88" height="238.88" stroke="#4E4D4D" stroke-width="0.494576"/>
<rect x="1436.5" y="420.997" width="238.88" height="238.88" stroke="#4E4D4D" stroke-width="0.494576"/>
<rect x="1675.87" y="420.997" width="238.88" height="238.88" stroke="#4E4D4D" stroke-width="0.494576"/>
<rect x="0.247349" y="660.372" width="238.88" height="238.88" stroke="#4E4D4D" stroke-width="0.494576"/>
<rect x="239.622" y="660.372" width="238.88" height="238.88" stroke="#4E4D4D" stroke-width="0.494576"/>
<rect x="478.997" y="660.372" width="238.88" height="238.88" stroke="#4E4D4D" stroke-width="0.494576"/>
<rect x="718.372" y="660.372" width="238.88" height="238.88" stroke="#4E4D4D" stroke-width="0.494576"/>
<rect x="957.747" y="660.372" width="238.88" height="238.88" stroke="#4E4D4D" stroke-width="0.494576"/>
<rect x="1197.12" y="660.372" width="238.88" height="238.88" stroke="#4E4D4D" stroke-width="0.494576"/>
<rect x="1436.5" y="660.372" width="238.88" height="238.88" stroke="#4E4D4D" stroke-width="0.494576"/>
<rect x="1675.87" y="660.372" width="238.88" height="238.88" stroke="#4E4D4D" stroke-width="0.494576"/>
<rect x="0.247349" y="899.747" width="238.88" height="238.88" stroke="#4E4D4D" stroke-width="0.494576"/>
<rect x="239.622" y="899.747" width="238.88" height="238.88" stroke="#4E4D4D" stroke-width="0.494576"/>
<rect x="478.997" y="899.747" width="238.88" height="238.88" stroke="#4E4D4D" stroke-width="0.494576"/>
<rect x="718.372" y="899.747" width="238.88" height="238.88" stroke="#4E4D4D" stroke-width="0.494576"/>
<rect x="957.747" y="899.747" width="238.88" height="238.88" stroke="#4E4D4D" stroke-width="0.494576"/>
<rect x="1197.12" y="899.747" width="238.88" height="238.88" stroke="#4E4D4D" stroke-width="0.494576"/>
<rect x="1436.5" y="899.747" width="238.88" height="238.88" stroke="#4E4D4D" stroke-width="0.494576"/>
<rect x="1675.87" y="899.747" width="238.88" height="238.88" stroke="#4E4D4D" stroke-width="0.494576"/>
</g>
</svg>
