<svg width="30" height="32" viewBox="0 0 30 32" fill="none" xmlns="http://www.w3.org/2000/svg">
<path d="M14.9995 0.147202C16.9604 0.146601 18.8698 0.774586 20.4476 1.93898C22.0253 3.10338 23.1882 4.74287 23.7657 6.61681C24.3432 8.49075 24.3047 10.5004 23.656 12.3509C23.0073 14.2014 21.7825 15.7952 20.1614 16.8984C22.9752 17.9305 25.4157 19.781 27.1688 22.2119C28.922 24.6428 29.9074 27.5428 29.9984 30.5385C30.0069 30.7048 29.9821 30.8711 29.9254 31.0276C29.8688 31.1842 29.7815 31.3279 29.6686 31.4503C29.5557 31.5727 29.4195 31.6712 29.268 31.7403C29.1164 31.8093 28.9527 31.8474 28.7862 31.8523C28.6198 31.8571 28.4541 31.8287 28.2988 31.7687C28.1435 31.7087 28.0017 31.6183 27.8818 31.5027C27.7619 31.3872 27.6663 31.2489 27.6006 31.0959C27.5349 30.9429 27.5004 30.7783 27.4991 30.6118C27.3998 27.3631 26.0395 24.2806 23.7063 22.0177C21.3732 19.7547 18.2506 18.4892 15.0003 18.4892C11.75 18.4892 8.62742 19.7547 6.29428 22.0177C3.96113 24.2806 2.60078 27.3631 2.50149 30.6118C2.49154 30.9435 2.35026 31.2576 2.10871 31.4851C1.86717 31.7125 1.54516 31.8347 1.21351 31.8248C0.88187 31.8148 0.567762 31.6736 0.34029 31.432C0.112817 31.1905 -0.00938608 30.8685 0.000563228 30.5368C0.091844 27.5414 1.07745 24.6418 2.83055 22.2112C4.58364 19.7807 7.024 17.9304 9.83755 16.8984C8.21643 15.7952 6.99163 14.2014 6.34292 12.3509C5.69422 10.5004 5.65577 8.49075 6.23323 6.61681C6.81069 4.74287 7.97363 3.10338 9.55138 1.93898C11.1291 0.774586 13.0386 0.146601 14.9995 0.147202ZM8.33032 9.31727C8.33032 11.086 9.03296 12.7824 10.2837 14.0331C11.5344 15.2838 13.2307 15.9864 14.9995 15.9864C16.7682 15.9864 18.4646 15.2838 19.7153 14.0331C20.966 12.7824 21.6686 11.086 21.6686 9.31727C21.6686 7.54851 20.966 5.85218 19.7153 4.60148C18.4646 3.35077 16.7682 2.64813 14.9995 2.64813C13.2307 2.64813 11.5344 3.35077 10.2837 4.60148C9.03296 5.85218 8.33032 7.54851 8.33032 9.31727Z" fill="#F36F2E"/>
</svg>
